<svg id="Layer_1" data-name="Layer 1" xmlns="http://www.w3.org/2000/svg" viewBox="0 0 750.24 350.67"><title>brow13</title><path fill="#FFD035" d="M361,116.88c8.77-3.27,17.38-7.09,26.34-9.69,14.5-4.19,29.22-7.57,43.86-11.27a10.65,10.65,0,0,1,2.71-.24c1,0,2.05.14,3.08.21a25.52,25.52,0,0,1-3,.89,240.17,240.17,0,0,0-71.7,23.44c-6.87,3.49-13.58,7.29-20.35,11a6.68,6.68,0,0,0-1.21,1.12c.54-.12,1.09-.2,1.62-.37,23.93-7.49,47.71-15.52,71.84-22.3a165.87,165.87,0,0,1,54.42-5.57,48.21,48.21,0,0,1,6.14,1.1c-2,.13-4.08.42-6.12.36a186.42,186.42,0,0,0-54.83,6.19,26.24,26.24,0,0,0-2.51.94,15,15,0,0,0,2.67.07,221.72,221.72,0,0,1,44.81-2.27c.75,0,1.49.15,2.24.23a13.13,13.13,0,0,1-2,.32,306.89,306.89,0,0,0-62.16,6.88c-7.13,1.54-13.84,5-20.8,7.39-17.37,6-33.59,14.44-49.16,24.16a8.41,8.41,0,0,0-1.3,1.3c.54-.19,1.1-.36,1.64-.58,17.13-6.81,34.07-14.15,51.44-20.29a292.81,292.81,0,0,1,60.72-14.82,34.54,34.54,0,0,1,5.37.14l-4.65.92c-27.21,5.39-54,12.2-79.36,23.74C338.2,150.11,317,162.59,298,178.65c-8.54,7.23-17.2,14.32-25.85,21.43a12.5,12.5,0,0,1-2.61,1.31c.42-.89.62-2,1.29-2.64,8-7.35,15.63-15.24,24.27-21.78,12.05-9.11,24.88-17.19,37.35-25.73a7.23,7.23,0,0,0,1.21-1.46,7.68,7.68,0,0,0-1.69.35c-9.65,4.27-19.46,8-27.83,15-13.14,10.86-26.81,21.1-40.28,31.57a12,12,0,0,1-2.25,1.09,8,8,0,0,1,1.3-2.18Q276,184.07,289.26,172.7c.69-.59,1.49-1,2.19-1.62a7,7,0,0,0,.86-1c-.5,0-1.11-.11-1.49.13q-5.18,3.22-10.29,6.58c-7.83,5.13-15.85,10-23.42,15.51S242.18,204.11,234.7,210a15.34,15.34,0,0,1-2.93,1.44,23.11,23.11,0,0,1,1.9-2.47,208.26,208.26,0,0,1,47.51-36.11c17.64-9.71,34.31-20.94,51.67-31.05,7.3-4.25,15.13-7.58,22.71-11.37a12.85,12.85,0,0,0,1.91-1.5,10.91,10.91,0,0,0-2.09.43c-12.67,5.34-25.66,10-37.86,16.29-9.48,4.86-18,11.68-26.91,17.61-.49.33-1,.58-1.53.87a13,13,0,0,0,.49-1.45,4.79,4.79,0,0,0,0-1.07,8.06,8.06,0,0,0-1.63.66c-9.41,6.32-19,12.35-28.14,19.09-8.48,6.28-16.38,13.34-24.55,20-.67.55-1.44,1-2.16,1.45a8.63,8.63,0,0,1,1.4-2.5c9.18-8.09,18.15-16.46,27.72-24.08a277.37,277.37,0,0,1,42.94-27.86c14.81-7.85,29.12-16.65,43.67-25,4-2.31,8.18-4.46,12.27-6.68Z"/><path fill="#FFD035" d="M361.09,116.75c-4.21,1.59-8.51,3-12.61,4.8-12,5.36-24.21,10.34-35.78,16.5-32.7,17.4-61.3,40.4-87.95,65.92-4.92,4.71-9.58,9.68-14.42,14.47a6.35,6.35,0,0,1-2.15.91,8.1,8.1,0,0,1,1-1.86c9.14-9.66,17.93-19.68,27.55-28.83,15.61-14.84,33-27.51,51.09-39.13a6.38,6.38,0,0,0,1-1.11,13.67,13.67,0,0,0-1.69.49c-14.08,6.15-27.4,13.66-38.79,24-13.06,11.86-25.58,24.33-38.37,36.49a31.84,31.84,0,0,1-3.75,2.69c.73-1.42,1.17-3.13,2.24-4.23,8.07-8.36,16.27-16.59,24.42-24.88a17.25,17.25,0,0,0,1.42-1.94c-.64.4-1.3.76-1.92,1.2-13.51,9.59-25.52,20.87-36.87,32.87-3.53,3.73-7,7.53-10.51,11.27a8.83,8.83,0,0,1-1.62,1.09,11,11,0,0,1,.89-2c11.39-16,24.46-30.44,40.51-41.88,10.34-7.37,21.1-14.14,31.69-21.17,14-9.28,27.9-18.66,42-27.77,7.1-4.59,14.54-8.67,21.81-13,.9-.54,1.75-1.16,2.62-1.74a15.06,15.06,0,0,0-3.34.77c-13.83,6.81-27.6,13.74-41.45,20.51-15.44,7.54-28,18.84-40.65,30.15-4.36,3.91-9,7.46-13.58,11.16a9.24,9.24,0,0,1-1.5.78,5.08,5.08,0,0,1,.63-1.83c2.11-2.34,4.34-4.59,6.49-6.9a14,14,0,0,0,1.23-1.78c-.75.26-1.68.31-2.2.8-11.1,10.47-22.14,21-33.23,31.5-1.74,1.64-3.67,3.08-5.51,4.61,1.32-2,2.49-4,4-5.83,14.1-17.16,29.95-32.35,48.66-44.57,14.27-9.32,27.52-20.26,42.12-29,16.55-9.92,34-18.31,51.26-27.1,3.44-1.75,7.49-2.32,11.29-3.36a6.27,6.27,0,0,1,2.05.12,8.8,8.8,0,0,1-1.8,1.14c-19.52,6.89-37.43,17-55.1,27.58a53.89,53.89,0,0,0-5,3.81c1.93-.65,3.9-1.2,5.79-2,17.53-7,35.13-13.93,52.56-21.24A256.82,256.82,0,0,1,398.1,93.58a41.36,41.36,0,0,1,6.3-.46c.44,0,.9.53,1.35.81-.46.28-.89.75-1.38.8-22.47,2.68-43.51,10.12-64,19.34A261.16,261.16,0,0,0,297,138.56c-4.52,3.18-9.57,5.61-14.32,8.47a25.09,25.09,0,0,0-3.09,2.59c1.23-.32,2.47-.6,3.7-1,13.21-3.81,24.57-11.53,36.83-17.36s25-10.75,37.51-16a8.25,8.25,0,0,1,2.21-.5c1.24-.14,2.5-.19,3.75-.28l-2.61,2.4Z"/><path fill="#FFD035" d="M477.58,115.23c12.75-.23,25,2.43,37.1,6a15.27,15.27,0,0,1,1.57.65,9.51,9.51,0,0,1-1.76.08c-9.29-1.2-18.55-2.94-27.87-3.53a152.16,152.16,0,0,0-55.08,6.85,16.36,16.36,0,0,0-2.28,1.08,15.31,15.31,0,0,0,2.24.14,413.43,413.43,0,0,1,86,3c10.84,1.55,21.37,5.3,32,8.1.7.19,1.27.9,1.9,1.37-.72-.14-1.45-.23-2.15-.43a243.62,243.62,0,0,0-48.57-8.88,20.77,20.77,0,0,0-2.23.07c.66.17,1.31.35,2,.51,4.85,1.12,9.72,2.22,14.57,3.37a11.24,11.24,0,0,1,1.93.9,9.07,9.07,0,0,1-2.18.22c-9.71-1.47-19.38-3.35-29.13-4.38a116.91,116.91,0,0,0-21.73-.42c-9,.73-17.89,2.58-26.84,3.85a20.48,20.48,0,0,1-4.26-.25c1.26-.4,2.5-.87,3.78-1.21,3.79-1,7.6-1.94,11.4-2.92.54-.14,1.06-.37,1.58-.55a10.83,10.83,0,0,0-1.8,0c-14.5,2.1-29.15,3.51-43.43,6.62-7.79,1.7-14.94,6.29-22.4,9.55-2.46,1.08-5,2.09-7.47,3.08-.32.13-.77-.09-1.16-.14.32-.31.62-.64,1-.91,1.07-.88,2.15-1.74,3.23-2.61a25.79,25.79,0,0,0-4.22,1.29c-18.41,9.12-36.84,18.22-55.15,27.54-3.47,1.76-6.47,4.45-9.72,6.65-.37.26-1,.17-1.48.24a4.57,4.57,0,0,1,.75-1.09c4.15-3.28,8.17-6.74,12.49-9.78C343.92,152.55,370.05,141,398,133.08c11.46-3.25,22.48-8,33.91-11.4a163.47,163.47,0,0,1,23.55-4.76C462.74,115.9,470.19,115.76,477.58,115.23Z"/><path fill="#FFD035" d="M225.59,162.65c-18.93,9.87-33.16,25-46.37,41.3q-7.42,9.15-15,18.23a10.53,10.53,0,0,1-2.28,1.59,10.67,10.67,0,0,1,1-2.82c3-4.2,6-8.32,9-12.5a7,7,0,0,0,.62-2,5.4,5.4,0,0,0-1.79.78,98.34,98.34,0,0,0-7.13,7.61c-7.72,9.85-15.29,19.82-22.95,29.71a9.2,9.2,0,0,1-2.09,1.5,12,12,0,0,1,.77-2.16c8.95-15.14,18.88-29.56,31.55-41.91,2.16-2.11,4.4-4.14,6.6-6.21,15.64-14.66,30.56-30.19,47.09-43.76a272.62,272.62,0,0,1,72.61-42.34,13.47,13.47,0,0,1,2.94-.47,14,14,0,0,1-2.27,1.83c-12.92,6.61-26.1,12.74-38.72,19.86-15.19,8.58-28.72,19.56-41.51,31.42a12.73,12.73,0,0,0-1.44,2.05,13.08,13.08,0,0,0,2.62-.53c3.26-1.4,6.48-2.9,9.71-4.37Z"/><path fill="#FFD035" d="M565,170.9c10.83,2.13,21.91,4.81,32.59,7.57,21,5.42,39.39,15.94,55.83,30a18,18,0,0,1,1.76,2,9.72,9.72,0,0,1-2.59-1,170,170,0,0,0-45.15-24.82c-2-.74-4.21-.82-6.32-1.21,1.73.87,3.46,1.73,5.18,2.61,7.53,3.84,15.21,7.43,22.53,11.63,4.53,2.59,8.52,6.12,12.73,9.25a3.11,3.11,0,0,1,.63,1,6.94,6.94,0,0,1-1.66-.27c-6.49-2.89-13-5.71-19.43-8.73-28.7-13.49-58.93-21.73-90.16-26.59-2.52-.4-5-1-7.51-1.54a66.57,66.57,0,0,1,7.86-.09,260.29,260.29,0,0,1,70.67,17.42c1.4.56,2.84,1,4.28,1.49s2.71.71,4.07,1.06c-1.17-.67-2.29-1.44-3.51-2-15.44-7-31.36-12.69-48.1-15.74-4.59-.83-9.29-1.11-13.93-1.69a7.68,7.68,0,0,1-1.73-.68c.57-.1,1.13-.24,1.71-.3s1.21,0,1.81-.06c.44,0,.88-.15,1.32-.22-.44-.25-.86-.67-1.32-.72q-8.79-.89-17.6-1.66c-3.32-.3-6.64-.52-9.95-.8a6.58,6.58,0,0,1-1.25-.37,4.36,4.36,0,0,1,1.36-.59c2.56-.19,4.11-.29,7.7-.45C527.11,165.34,552.25,168.4,565,170.9Z"/><path fill="#FFD035" d="M461.14,136.85c-16.42-.21-32.19,3.51-47.55,8.69-16.59,5.59-32.95,11.91-49.28,18.25-5.89,2.3-11.38,5.62-17.1,8.4a7.47,7.47,0,0,1-2.45.27,10.36,10.36,0,0,1,1.63-1.49c5.65-3.21,11.33-6.36,17-9.55q3.54-2,7.05-4.1a9.28,9.28,0,0,0,1.26-1.1,5.58,5.58,0,0,0-1.65.22c-8.84,3.9-18,7.32-26.43,11.9-12.22,6.59-24,14-35.94,21.11a28.86,28.86,0,0,1-2.71,1.24,11.17,11.17,0,0,1,2-2.63c15.85-11.71,32.15-22.76,50.69-29.77,15.69-5.92,31.32-12.45,47.53-16.43a207.5,207.5,0,0,1,63.5-6,12,12,0,0,1,2.06.52,13.43,13.43,0,0,1-2.29.45C466,136.89,463.56,136.85,461.14,136.85Z"/><path fill="#FFD035" d="M164.79,204.9l-.82-.19a4.28,4.28,0,0,1,.41-1.22c2.78-4,5.61-7.9,8.39-11.86.82-1.17,1.52-2.42,2.28-3.64a28.08,28.08,0,0,0-3.24,3q-14.82,18.6-29.56,37.28c-.71.88-1.59,1.63-2.38,2.44a12.39,12.39,0,0,1,.78-3.28c8.32-14.86,17.93-28.84,30.64-40.26,20.13-18.09,40.55-35.85,61.06-53.52,8.2-7.06,17.86-11.88,27.87-15.93a17,17,0,0,1,2.51-.6,11.79,11.79,0,0,1-1.9,1.59,177.33,177.33,0,0,0-35.24,24.7c-11.55,10.42-22.89,21.11-33.86,32.14-8.62,8.66-16.54,18-24.78,27.08C166.24,203.41,165.5,204.16,164.79,204.9Z"/><path fill="#FFD035" d="M482.24,144.8c18.75.52,37.54.44,56.22,1.76,15.19,1.08,29.44,6.52,43.17,13a12.4,12.4,0,0,1,2.39,1.94,14,14,0,0,1-3.22-.56A142.27,142.27,0,0,0,544,150.07c-3-.43-6-.36-9-.52,2.61.7,5.25,1.31,7.83,2.12,9.95,3.13,19.91,6.21,29.78,9.57,2.35.79,4.37,2.57,6.54,3.9-2.18-.74-4.32-1.6-6.54-2.19-13.57-3.57-27.1-7.31-40.74-10.55a117,117,0,0,0-36-2.83c-4.2.32-8.41.68-12.63.88a8.66,8.66,0,0,1-2.67-.8c.76-.35,1.51-.75,2.3-1.05a20.16,20.16,0,0,1,2.06-.56,11.38,11.38,0,0,0-2.07-.26c-13.73.89-27.5,1.35-41.15,2.86-8.92,1-17.68,3.51-26.51,5.31a17.52,17.52,0,0,1-2.72.13,13.84,13.84,0,0,1,2.78-1.38c10.13-2.42,20.19-5.38,30.46-7C457.74,145.85,482.22,144.53,482.24,144.8Z"/><path fill="#FFD035" d="M494.82,137.34c10.81,1.25,22.83,2.63,34.84,4a6.55,6.55,0,0,1,1.73.48,15.23,15.23,0,0,1,1.64.88,13.44,13.44,0,0,1-1.78.13c-13.15-.6-26.28-1.46-39.43-1.75a253.31,253.31,0,0,0-27.14.77c-6.75.59-13.36,3.33-20.07,3.5-15,.38-28.64,5.76-42.42,10.35-12.58,4.18-24.63,9.93-36.91,15-1.12.46-2.16,1.11-3.29,1.52a30,30,0,0,1-3.26.85,17.57,17.57,0,0,1,2.35-2c4.69-2.77,9.27-5.77,14.16-8.14,31.48-15.3,64.92-22.8,99.73-24.69C481.16,138,487.36,137.69,494.82,137.34Z"/><path fill="#FFD035" d="M100.09,236.48c2.38-6.38,5-13.6,7.79-20.79.59-1.54,1.53-2.94,2.24-4.44a7.74,7.74,0,0,0,.36-1.63,6.92,6.92,0,0,0-1.31,1.14c-4.81,6.77-9.78,13.45-14.32,20.4-3.14,4.79-5.67,10-8.52,15a8.25,8.25,0,0,1-1.45,1.51,5.22,5.22,0,0,1,0-2c1.47-3.61,3.25-7.11,4.56-10.78,4.4-12.39,14-20.94,22.21-30.54a106.7,106.7,0,0,0,7.86-9.93,161.27,161.27,0,0,1,49.16-47.66,3.59,3.59,0,0,1,.78-.45c1.09-.34,2.19-.64,3.28-1a14.09,14.09,0,0,1-2.34,2.41c-15,9.44-27.54,21.64-38.8,35.22a22.87,22.87,0,0,0-2.09,3.68c1.09-.73,2.14-1.53,3.28-2.18s2.47-1.23,3.71-1.84a20.08,20.08,0,0,1-2.58,3c-12.36,9.59-19.75,22.69-25.93,36.63-2.27,5.11-4.29,10.33-6.45,15.49a13.06,13.06,0,0,1-.94,1.55Z"/><path fill="#FFD035" d="M225.59,162.65l3-3.15c4.16-2.85,8.25-5.83,12.49-8.55q15.46-9.88,31.05-19.55a15.06,15.06,0,0,1,3.53-1.15c-1,.7-1.89,1.46-2.91,2.06-20.83,12.22-39.55,27.28-57.58,43.19a252.27,252.27,0,0,0-36.82,41.16c-4.72,6.48-9.42,13-14.18,19.4a9.11,9.11,0,0,1-1.94,1.5,6.87,6.87,0,0,1,.51-2.46c5.58-8.62,11.08-17.3,16.89-25.76,10.89-15.87,25-28.68,39.63-40.93C221.44,166.58,223.48,164.58,225.59,162.65Z"/><path fill="#FFD035" d="M208.58,147c-1,.9-1.93,1.84-2.92,2.75-11,10.11-22.34,19.91-33,30.4-16.44,16.25-29.48,35.15-41.11,55-2.36,4-4.68,8.1-7.08,12.13a19.74,19.74,0,0,1-1.91,2.3,9.91,9.91,0,0,1,.47-2.87c3.67-7.45,7.05-15.07,11.21-22.23,13.47-23.19,30.7-43.35,50.82-61,6.79-5.94,14.3-11.06,21.5-16.53a6.57,6.57,0,0,1,1.63-.76S208.42,146.66,208.58,147Z"/><path fill="#FFD035" d="M114.6,226.22l-.76-.18a7.64,7.64,0,0,1,.45-1.27c2.74-4.88,5.3-9.86,8.27-14.58,14.85-23.66,33-44.43,55.24-61.38,4.93-3.74,10.25-7,15.42-10.38a7.77,7.77,0,0,1,2-.64,7.91,7.91,0,0,1-1.27,1.92c-9.49,8-19.71,15.21-28.36,24-11,11.15-21,23.34-30.9,35.47-6.82,8.34-12.83,17.35-19.21,26.06C115.24,225.59,114.9,225.89,114.6,226.22Z"/><path fill="#FFD035" d="M173.17,172.42c-.41.39-.82.84-1.28,1.21-2.59,2.08-5.09,4.31-7.82,6.2-13.37,9.28-23.85,21.56-33.25,34.46s-17.23,27.27-25.76,41c-.52.83-1.17,1.59-1.76,2.39a10.5,10.5,0,0,1,.3-3.21c10.31-24,24.08-45.73,43.9-63.09,7.59-6.64,15.78-12.61,23.71-18.86a9,9,0,0,1,1.6-.83Z"/><path fill="#FFD035" d="M480.47,151.34c20.75.95,41.4,2.37,61.63,7.34a26,26,0,0,1,4.61,2.15c-1.59-.32-3.16-.7-4.76-1-10-1.55-20-3.62-30-4.52-34.49-3.08-68.62-1.06-102.12,8.38a36.13,36.13,0,0,1-5.62.71,48.57,48.57,0,0,1,5.21-2.23A265.54,265.54,0,0,1,480.47,151.34Z"/><path fill="#FFD035" d="M146.2,155.94c-.5.52-1,1.1-1.54,1.61-3.55,3.3-7.21,6.47-10.64,9.89-16.48,16.4-31,34.3-41.77,55.05a27.45,27.45,0,0,1-3.13,4c.41-1.55.72-3.15,1.26-4.66,6.54-18.37,18.26-33.37,31.65-47,6.72-6.88,14.63-12.59,22-18.79a7,7,0,0,1,2-.8Z"/><path fill="#FFD035" d="M539.67,161.3a183.64,183.64,0,0,1,40.49,7.4c4.47,1.31,8.81,3.09,13.18,4.71.43.16.7.77,1,1.17a5,5,0,0,1-1.72.18q-6.15-1.63-12.24-3.41c-21.24-6.18-43.08-8.21-65-9.27-8-.38-16-.08-24-.13a7.06,7.06,0,0,1-1.81-.49,7.09,7.09,0,0,1,1.66-.61c5.28-.49,10.55-.93,15.83-1.38C507.08,159.28,528.81,160.62,539.67,161.3Z"/><path fill="#FFD035" d="M79.21,236.38c-.2-10.36,3.38-19.86,6.86-29.33a131.64,131.64,0,0,1,20.12-35.78,10.2,10.2,0,0,1,1.43-1.75c1.55-1.25,3.19-2.4,4.8-3.59-1,1.61-1.89,3.29-3,4.83a173.59,173.59,0,0,0-26.66,56.17c-1,3.78-1.38,7.72-2.11,11.57a11.44,11.44,0,0,1-.9,2.23c-.19-.84-.43-1.68-.55-2.54A12.14,12.14,0,0,1,79.21,236.38Z"/><path fill="#FFD035" d="M599.57,195.44c1,.29,2,.56,3,.89,24,8.12,47,18.21,68.72,31.28a31.64,31.64,0,0,1,3.71,3.07,40.31,40.31,0,0,1-4.48-1.44Q636.89,214,603.27,198.75c-1.37-.62-2.73-1.29-4-2-.27-.15-.34-.65-.51-1Z"/><path fill="#FFD035" d="M237.09,123.3c-1.51.84-2.16,1.18-2.79,1.55-12.8,7.69-25.84,15-38.31,23.2-8.93,5.86-17.07,12.92-25.65,19.33a32.62,32.62,0,0,1-5.39,2.68c1.29-1.39,2.47-2.91,3.89-4.17,18-15.85,37.29-29.75,59.06-40,2.18-1,4.49-1.77,6.76-2.58A11.29,11.29,0,0,1,237.09,123.3Z"/><path fill="#FFD035" d="M76.1,221c2.23-15.08,6.69-28.44,15-40.32a36,36,0,0,1,4.34-4.4c-.84,1.66-1.54,3.4-2.52,5-6.72,10.76-10,22.89-14,34.74-.48,1.43-.88,2.9-1.45,4.29a7,7,0,0,1-1.23,1.57Z"/><path fill="#FFD035" d="M103.15,191.38c-.27-.14-.68-.31-.67-.37a5.83,5.83,0,0,1,.6-1.67c3.86-5.93,7.31-12.2,11.76-17.65s9.71-9.83,14.7-14.63c.52-.5,1.5-.54,2.27-.79a14.73,14.73,0,0,1-1.09,1.79q-13.32,16.17-26.67,32.33C103.77,190.73,103.46,191,103.15,191.38Z"/></svg>