<svg id="Layer_1" data-name="Layer 1" xmlns="http://www.w3.org/2000/svg" xmlns:xlink="http://www.w3.org/1999/xlink" viewBox="0 0 633.82 634.37"><defs><style>.cls-1{fill:url(#linear-gradient);}.cls-2{fill:url(#linear-gradient-2);}.cls-3{fill:url(#linear-gradient-3);}</style><linearGradient id="linear-gradient" x1="45" y1="94.23" x2="588.83" y2="94.23" gradientUnits="userSpaceOnUse"><stop offset="0" stop-color="#231f20"/><stop offset="1" stop-color="#885446"/></linearGradient><linearGradient id="linear-gradient-2" x1="3.04" y1="395.63" x2="316.91" y2="395.63" gradientUnits="userSpaceOnUse"><stop offset="0" stop-color="#c85e29"/><stop offset="1" stop-color="#520000"/></linearGradient><linearGradient id="linear-gradient-3" x1="316.91" y1="395.63" x2="630.79" y2="395.63" gradientUnits="userSpaceOnUse"><stop offset="0" stop-color="#f3ebb4"/><stop offset="1" stop-color="#f4cb51"/></linearGradient></defs><title>color spiral</title><path fill="#573c36" class="cls-1" d="M588.83,160.19l-43.23,25a264.14,264.14,0,0,0-457.44,0L45,160.19a314.09,314.09,0,0,1,543.83,0Z"/><path fill="#f5d882" class="cls-2" d="M316.91,581.24v49.82C143.42,631.06,3,490.67,3,317.18a312.73,312.73,0,0,1,42-157h0l43.16,24.92A262.88,262.88,0,0,0,52.81,317.18C52.81,463,171,581.24,316.87,581.24Z"/><path fill="#b6502a" class="cls-3" d="M630.79,317.18c0,173.49-140.39,313.88-313.88,313.88V581.24c145.82,0,264-118.23,264-264.06a262.81,262.81,0,0,0-35.33-132l43.23-25A312.64,312.64,0,0,1,630.79,317.18Z"/></svg>